<svg width="36" height="24" viewBox="0 0 36 24" fill="none" xmlns="http://www.w3.org/2000/svg">
<circle cx="24" cy="12" r="11.5" fill="white" stroke="#9C0000"/>
<circle cx="20" cy="12" r="11.5" fill="white" stroke="#9C0000"/>
<circle cx="16" cy="12" r="11.5" fill="white" stroke="#9C0000"/>
<circle cx="12" cy="12" r="11.5" fill="white" stroke="#9C0000"/>
<path d="M12.0026 18.6693C8.3206 18.6693 5.33594 15.6846 5.33594 12.0026C5.33594 8.3206 8.3206 5.33594 12.0026 5.33594C15.6846 5.33594 18.6693 8.3206 18.6693 12.0026C18.6693 15.6846 15.6846 18.6693 12.0026 18.6693ZM9.66927 13.3359V14.6693H11.3359V16.0026H12.6693V14.6693H13.3359C13.778 14.6693 14.2019 14.4937 14.5144 14.1811C14.827 13.8686 15.0026 13.4446 15.0026 13.0026C15.0026 12.5606 14.827 12.1367 14.5144 11.8241C14.2019 11.5115 13.778 11.3359 13.3359 11.3359H10.6693C10.5809 11.3359 10.4961 11.3008 10.4336 11.2383C10.3711 11.1758 10.3359 11.091 10.3359 11.0026C10.3359 10.9142 10.3711 10.8294 10.4336 10.7669C10.4961 10.7044 10.5809 10.6693 10.6693 10.6693H14.3359V9.33594H12.6693V8.0026H11.3359V9.33594H10.6693C10.2272 9.33594 9.80332 9.51153 9.49076 9.82409C9.1782 10.1367 9.0026 10.5606 9.0026 11.0026C9.0026 11.4446 9.1782 11.8686 9.49076 12.1811C9.80332 12.4937 10.2272 12.6693 10.6693 12.6693H13.3359C13.4243 12.6693 13.5091 12.7044 13.5716 12.7669C13.6342 12.8294 13.6693 12.9142 13.6693 13.0026C13.6693 13.091 13.6342 13.1758 13.5716 13.2383C13.5091 13.3008 13.4243 13.3359 13.3359 13.3359H9.66927Z" fill="#9C0000"/>
</svg>
