<svg width="120" height="120" viewBox="0 0 120 120" fill="none" xmlns="http://www.w3.org/2000/svg">
<rect width="120" height="120" rx="60" fill="#C90000"/>
<path d="M59.9996 70.834C67.9361 70.834 74.876 74.2465 78.6503 79.3381L74.6593 81.2253C71.587 77.5853 66.1703 75.1673 60.0018 75.1673C53.8311 75.1673 48.4166 77.5853 45.3443 81.2253L41.3555 79.336C45.1298 74.2443 52.0675 70.834 59.9996 70.834ZM59.9996 38.334C62.8728 38.334 65.6283 39.4754 67.66 41.507C69.6916 43.5386 70.833 46.2941 70.833 49.1673V55.6673C70.833 58.5405 69.6916 61.296 67.66 63.3276C65.6283 65.3593 62.8728 66.5006 59.9996 66.5006C57.1265 66.5006 54.371 65.3593 52.3393 63.3276C50.3077 61.296 49.1663 58.5405 49.1663 55.6673V49.1673C49.1663 46.2941 50.3077 43.5386 52.3393 41.507C54.371 39.4754 57.1265 38.334 59.9996 38.334Z" fill="#F7F7F7"/>
</svg>
