<svg width="32" height="32" viewBox="0 0 32 32" fill="none" xmlns="http://www.w3.org/2000/svg">
<path d="M26.3587 15.5265C25.3847 14.3891 24.9421 13.4034 24.9421 11.7289V11.1595C24.9421 8.9774 24.4399 7.57144 23.348 6.16547C21.665 3.98201 18.8319 2.66602 16.0583 2.66602H15.9404C13.2252 2.66602 10.4808 3.92158 8.76868 6.01642C7.61712 7.45058 7.05658 8.91697 7.05658 11.1595V11.7289C7.05658 13.4034 6.64314 14.3891 5.64 15.5265C4.90189 16.3644 4.66602 17.4414 4.66602 18.607C4.66602 19.7739 5.04898 20.8791 5.81757 21.7774C6.82071 22.8544 8.23729 23.5419 9.68435 23.6614C11.7794 23.9005 13.8745 23.9904 16 23.9904C18.1242 23.9904 20.2193 23.84 22.3157 23.6614C23.7614 23.5419 25.178 22.8544 26.1811 21.7774C26.9484 20.8791 27.3327 19.7739 27.3327 18.607C27.3327 17.4414 27.0968 16.3644 26.3587 15.5265Z" fill="white"/>
<path opacity="0.4" d="M18.6774 25.638C18.0108 25.4957 13.9492 25.4957 13.2827 25.638C12.7129 25.7696 12.0967 26.0758 12.0967 26.7472C12.1298 27.3877 12.5048 27.9531 13.0243 28.3116L13.023 28.313C13.6948 28.8367 14.4833 29.1697 15.3088 29.2892C15.7488 29.3496 16.1967 29.347 16.6525 29.2892C17.4768 29.1697 18.2652 28.8367 18.9371 28.313L18.9358 28.3116C19.4552 27.9531 19.8302 27.3877 19.8634 26.7472C19.8634 26.0758 19.2472 25.7696 18.6774 25.638Z" fill="white"/>
</svg>
