<svg width="32" height="32" viewBox="0 0 32 32" fill="none" xmlns="http://www.w3.org/2000/svg">
<path fill-rule="evenodd" clip-rule="evenodd" d="M16.0475 2.66602H15.9524C11.4602 2.66602 7.34141 5.92543 6.94181 10.2406C6.91516 10.5493 6.897 10.8648 6.88527 11.2046L6.86885 11.999L6.8656 12.7113L6.88566 12.6301C6.70027 13.5341 6.27301 14.3726 5.64806 15.0577L5.5585 15.1729C5.0234 15.9858 4.71594 16.9267 4.66835 17.8983L4.66722 18.2159C4.6399 19.4937 5.07777 20.7582 5.90152 21.7625C7.0186 22.9419 8.46463 23.6455 10.0166 23.7948C13.986 24.2259 18.002 24.2259 21.9825 23.7936C23.5238 23.6518 24.9742 22.9461 26.0445 21.8103C26.8526 20.8435 27.2936 19.6833 27.3314 18.4821L27.3327 17.9443C27.2885 16.93 26.9791 15.9883 26.4375 15.1789L26.3553 15.0733L26.1543 14.837C25.7028 14.273 25.3731 13.6234 25.1855 12.9285L25.1261 12.679L25.1137 12.4174C25.1101 12.2997 25.1082 12.1692 25.1076 12.0062L25.1075 11.1088C25.1044 10.7655 25.0942 10.5213 25.0705 10.2465C24.6573 5.92315 20.5373 2.66602 16.0475 2.66602ZM15.9522 4.52734H16.0473C19.6439 4.52734 22.925 7.12121 23.2401 10.4179C23.2587 10.6343 23.267 10.8408 23.2695 11.1475L23.2731 12.3537C23.2772 12.5466 23.2847 12.707 23.2977 12.8876L23.3149 13.0111L23.4014 13.3788C23.6578 14.3516 24.1182 15.259 24.7521 16.0413L24.9359 16.257L24.9156 16.2231C25.2672 16.7486 25.4675 17.3583 25.4954 17.9871L25.4945 18.205C25.5157 19.0798 25.2257 19.9109 24.677 20.5691C23.9518 21.3362 22.9152 21.8405 21.8009 21.9432C17.9361 22.3627 14.0515 22.3627 10.2014 21.9447C9.07488 21.8362 8.03753 21.3315 7.2707 20.5243C6.7736 19.9144 6.48669 19.0859 6.50471 18.2368L6.50492 17.9452L6.52821 17.6912C6.58431 17.2662 6.7263 16.8355 6.94638 16.439L7.05799 16.2543C7.87617 15.334 8.43768 14.2151 8.68499 13.0091L8.70417 12.82L8.71287 11.5943L8.73428 10.9725C8.74399 10.7763 8.75642 10.5899 8.77201 10.4092C9.0765 7.12137 12.3545 4.52734 15.9522 4.52734ZM7.05799 16.2543C7.0382 16.2765 7.01826 16.2987 6.99817 16.3207L7.06386 16.2446L7.05799 16.2543ZM19.4774 26.2543C19.0819 25.9323 18.5034 25.9957 18.1853 26.396C18.0474 26.5695 17.8878 26.7251 17.7102 26.8592C17.1077 27.3316 16.356 27.542 15.6086 27.453C14.8623 27.3641 14.184 26.9843 13.7237 26.3994C13.4074 25.9976 12.8293 25.9314 12.4323 26.2515C12.0354 26.5717 11.9699 27.1569 12.2862 27.5587C13.0494 28.5285 14.1678 29.1547 15.3938 29.3007C16.6188 29.4466 17.8522 29.1014 18.8224 28.3402C19.1104 28.1231 19.3821 27.8581 19.6173 27.5622C19.9355 27.1619 19.8728 26.5763 19.4774 26.2543Z" fill="white" fill-opacity="0.9"/>
</svg>
