<svg width="36" height="38" viewBox="0 0 36 38" fill="none" xmlns="http://www.w3.org/2000/svg">
<g filter="url(#filter0_d_2007_2787)">
<path fill-rule="evenodd" clip-rule="evenodd" d="M17.9993 2.66602C10.6356 2.66602 4.66602 8.63555 4.66602 15.9993C4.66602 23.3631 10.6356 29.3327 17.9993 29.3327C25.3631 29.3327 31.3327 23.3631 31.3327 15.9993C31.3327 8.63555 25.3631 2.66602 17.9993 2.66602ZM17.9987 4.5957C24.2964 4.5957 29.4017 9.70101 29.4017 15.9987C29.4017 22.2964 24.2964 27.4017 17.9987 27.4017C11.701 27.4017 6.5957 22.2964 6.5957 15.9987C6.5957 9.70101 11.701 4.5957 17.9987 4.5957ZM22.0106 10.7779L15.4613 12.8275C15.1594 12.922 14.923 13.1584 14.8285 13.4604L12.7789 20.0096C12.5462 20.7531 13.2448 21.4516 13.9883 21.219L20.5375 19.1694C20.8394 19.0749 21.0759 18.8384 21.1704 18.5365L23.2199 11.9873C23.4526 11.2438 22.754 10.5453 22.0106 10.7779ZM20.8267 13.1699L19.478 17.477L15.1708 18.8257L16.5195 14.5185L20.8267 13.1699Z" fill="white" fill-opacity="0.9"/>
</g>
<defs>
<filter id="filter0_d_2007_2787" x="-2" y="0" width="40" height="40" filterUnits="userSpaceOnUse" color-interpolation-filters="sRGB">
<feFlood flood-opacity="0" result="BackgroundImageFix"/>
<feColorMatrix in="SourceAlpha" type="matrix" values="0 0 0 0 0 0 0 0 0 0 0 0 0 0 0 0 0 0 127 0" result="hardAlpha"/>
<feOffset dy="4"/>
<feGaussianBlur stdDeviation="2"/>
<feComposite in2="hardAlpha" operator="out"/>
<feColorMatrix type="matrix" values="0 0 0 0 0 0 0 0 0 0 0 0 0 0 0 0 0 0 0.25 0"/>
<feBlend mode="normal" in2="BackgroundImageFix" result="effect1_dropShadow_2007_2787"/>
<feBlend mode="normal" in="SourceGraphic" in2="effect1_dropShadow_2007_2787" result="shape"/>
</filter>
</defs>
</svg>
