<svg width="32" height="32" viewBox="0 0 32 32" fill="none" xmlns="http://www.w3.org/2000/svg">
<path d="M29.3327 15.9993C29.3327 23.3633 23.3633 29.3327 15.9993 29.3327C8.63535 29.3327 2.66602 23.3633 2.66602 15.9993C2.66602 8.63668 8.63535 2.66602 15.9993 2.66602C23.3633 2.66602 29.3327 8.63668 29.3327 15.9993Z" fill="white"/>
<path d="M21.1463 11.6051L18.9863 18.4318C18.9063 18.7118 18.6796 18.9384 18.3996 19.0198L11.5996 21.1518C11.1463 21.2998 10.7063 20.8584 10.853 20.4051L12.9863 13.5651C13.0663 13.2851 13.293 13.0718 13.573 12.9784L20.3996 10.8451C20.8663 10.6984 21.293 11.1384 21.1463 11.6051Z" fill="#727273"/>
</svg>
