<svg width="32" height="32" viewBox="0 0 32 32" fill="none" xmlns="http://www.w3.org/2000/svg">
<path fill-rule="evenodd" clip-rule="evenodd" d="M21.7135 2.66602H26.0689C27.871 2.66602 29.3328 4.14055 29.3328 5.95959V10.3515C29.3328 12.1692 27.871 13.6451 26.0689 13.6451H21.7135C19.9101 13.6451 18.4482 12.1692 18.4482 10.3515V5.95959C18.4482 4.14055 19.9101 2.66602 21.7135 2.66602Z" stroke="white" stroke-width="1.5" stroke-linecap="round" stroke-linejoin="round"/>
<path fill-rule="evenodd" clip-rule="evenodd" d="M5.93124 2.66602H10.2853C12.0887 2.66602 13.5506 4.14055 13.5506 5.95959V10.3515C13.5506 12.1692 12.0887 13.6451 10.2853 13.6451H5.93124C4.12785 13.6451 2.66602 12.1692 2.66602 10.3515V5.95959C2.66602 4.14055 4.12785 2.66602 5.93124 2.66602Z" stroke="white" stroke-width="1.5" stroke-linecap="round" stroke-linejoin="round"/>
<path fill-rule="evenodd" clip-rule="evenodd" d="M5.93124 18.3535H10.2853C12.0887 18.3535 13.5506 19.828 13.5506 21.6485V26.039C13.5506 27.858 12.0887 29.3326 10.2853 29.3326H5.93124C4.12785 29.3326 2.66602 27.858 2.66602 26.039V21.6485C2.66602 19.828 4.12785 18.3535 5.93124 18.3535Z" stroke="white" stroke-width="1.5" stroke-linecap="round" stroke-linejoin="round"/>
<path fill-rule="evenodd" clip-rule="evenodd" d="M21.7135 18.3535H26.0689C27.871 18.3535 29.3328 19.828 29.3328 21.6485V26.039C29.3328 27.858 27.871 29.3326 26.0689 29.3326H21.7135C19.9101 29.3326 18.4482 27.858 18.4482 26.039V21.6485C18.4482 19.828 19.9101 18.3535 21.7135 18.3535Z" stroke="white" stroke-width="1.5" stroke-linecap="round" stroke-linejoin="round"/>
</svg>
