<svg width="32" height="32" viewBox="0 0 32 32" fill="none" xmlns="http://www.w3.org/2000/svg">
<path opacity="0.4" d="M21.4335 2.66602H25.9481C27.8178 2.66602 29.3328 4.19382 29.3328 6.0793V10.632C29.3328 12.5175 27.8178 14.0453 25.9481 14.0453H21.4335C19.5638 14.0453 18.0488 12.5175 18.0488 10.632V6.0793C18.0488 4.19382 19.5638 2.66602 21.4335 2.66602Z" fill="white"/>
<path fill-rule="evenodd" clip-rule="evenodd" d="M6.05071 2.66602H10.5653C12.435 2.66602 13.95 4.19382 13.95 6.0793V10.632C13.95 12.5175 12.435 14.0453 10.5653 14.0453H6.05071C4.18102 14.0453 2.66602 12.5175 2.66602 10.632V6.0793C2.66602 4.19382 4.18102 2.66602 6.05071 2.66602ZM6.05071 17.9534H10.5653C12.435 17.9534 13.95 19.4812 13.95 21.3666V25.9194C13.95 27.8036 12.435 29.3327 10.5653 29.3327H6.05071C4.18102 29.3327 2.66602 27.8036 2.66602 25.9194V21.3666C2.66602 19.4812 4.18102 17.9534 6.05071 17.9534ZM25.948 17.9534H21.4334C19.5637 17.9534 18.0487 19.4812 18.0487 21.3666V25.9194C18.0487 27.8036 19.5637 29.3327 21.4334 29.3327H25.948C27.8177 29.3327 29.3327 27.8036 29.3327 25.9194V21.3666C29.3327 19.4812 27.8177 17.9534 25.948 17.9534Z" fill="white"/>
</svg>
