<svg width="32" height="32" viewBox="0 0 32 32" fill="none" xmlns="http://www.w3.org/2000/svg">
<circle cx="16" cy="16" r="16" fill="#C90000"/>
<mask id="mask0_2007_2796" style="mask-type:alpha" maskUnits="userSpaceOnUse" x="0" y="0" width="32" height="32">
<circle cx="16" cy="16" r="16" fill="#0266C9"/>
</mask>
<g mask="url(#mask0_2007_2796)">
</g>
<path d="M15.9999 20.166C19.0524 20.166 21.7216 21.4785 23.1733 23.4369L21.6383 24.1627C20.4566 22.7627 18.3733 21.8327 16.0008 21.8327C13.6274 21.8327 11.5449 22.7627 10.3633 24.1627L8.8291 23.436C10.2808 21.4777 12.9491 20.166 15.9999 20.166ZM15.9999 7.66602C17.105 7.66602 18.1648 8.105 18.9462 8.8864C19.7276 9.66781 20.1666 10.7276 20.1666 11.8327V14.3327C20.1666 15.4378 19.7276 16.4976 18.9462 17.279C18.1648 18.0604 17.105 18.4994 15.9999 18.4994C14.8949 18.4994 13.8351 18.0604 13.0537 17.279C12.2723 16.4976 11.8333 15.4378 11.8333 14.3327V11.8327C11.8333 10.7276 12.2723 9.66781 13.0537 8.8864C13.8351 8.105 14.8949 7.66602 15.9999 7.66602Z" fill="white"/>
</svg>
